HIERARCHY
ROOT mixamorig:Hips
{
	OFFSET 0.000000 3.528733 0.000000
	CHANNELS 6 Xposition Yposition Zposition Xrotation Yrotation Zrotation
	JOINT mixamorig:Spine
	{
		OFFSET 0.000000 0.284700 -0.015200
		CHANNELS 3 Xrotation Yrotation Zrotation
		JOINT mixamorig:Spine1
		{
			OFFSET 0.000000 0.332125 -0.017771
			CHANNELS 3 Xrotation Yrotation Zrotation
			JOINT mixamorig:Spine2
			{
				OFFSET 0.000000 0.379557 -0.020309
				CHANNELS 3 Xrotation Yrotation Zrotation
				JOINT mixamorig:Neck
				{
					OFFSET 0.000000 0.426989 -0.022847
					CHANNELS 3 Xrotation Yrotation Zrotation
					JOINT mixamorig:Head
					{
						OFFSET 0.000000 0.288600 0.098000
						CHANNELS 3 Xrotation Yrotation Zrotation
						JOINT mixamorig:HeadTop_End
						{
							OFFSET 0.000000 0.712700 0.242000
							CHANNELS 3 Xrotation Yrotation Zrotation
							End Site
							{
								OFFSET 0.000000 0.752666 0.000000
							}
						}
					}
				}
				JOINT mixamorig:LeftShoulder
				{
					OFFSET 0.202600 0.346984 -0.022672
					CHANNELS 3 Xrotation Yrotation Zrotation
					JOINT mixamorig:LeftArm
					{
						OFFSET 0.427337 -0.109325 0.000307
						CHANNELS 3 Xrotation Yrotation Zrotation
						JOINT mixamorig:LeftForeArm
						{
							OFFSET 0.849600 0.000000 0.000000
							CHANNELS 3 Xrotation Yrotation Zrotation
							JOINT mixamorig:LeftHand
							{
								OFFSET 0.753900 0.000000 0.000000
								CHANNELS 3 Xrotation Yrotation Zrotation
								JOINT mixamorig:LeftHandThumb1
								{
									OFFSET 0.136012 -0.086473 0.045448
									CHANNELS 3 Xrotation Yrotation Zrotation
									JOINT mixamorig:LeftHandThumb2
									{
										OFFSET 0.103772 -0.059913 0.059913
										CHANNELS 3 Xrotation Yrotation Zrotation
										JOINT mixamorig:LeftHandThumb3
										{
											OFFSET 0.095779 -0.055298 0.055298
											CHANNELS 3 Xrotation Yrotation Zrotation
											JOINT mixamorig:LeftHandThumb4
											{
												OFFSET 0.073275 -0.042305 0.042305
												CHANNELS 3 Xrotation Yrotation Zrotation
												End Site
												{
													OFFSET 0.065698 -0.038445 0.056164
												}
											}
										}
									}
								}
								JOINT mixamorig:LeftHandIndex1
								{
									OFFSET 0.449965 -0.020370 0.085418
									CHANNELS 3 Xrotation Yrotation Zrotation
									JOINT mixamorig:LeftHandIndex2
									{
										OFFSET 0.102424 0.000000 -0.000000
										CHANNELS 3 Xrotation Yrotation Zrotation
										JOINT mixamorig:LeftHandIndex3
										{
											OFFSET 0.096306 0.000000 -0.000000
											CHANNELS 3 Xrotation Yrotation Zrotation
											JOINT mixamorig:LeftHandIndex4
											{
												OFFSET 0.078408 0.000000 -0.000000
												CHANNELS 3 Xrotation Yrotation Zrotation
												End Site
												{
													OFFSET 0.078400 -0.000010 -0.001100
												}
											}
										}
									}
								}
								JOINT mixamorig:LeftHandMiddle1
								{
									OFFSET 0.430485 0.000000 0.000000
									CHANNELS 3 Xrotation Yrotation Zrotation
									JOINT mixamorig:LeftHandMiddle2
									{
										OFFSET 0.112203 0.000000 0.000000
										CHANNELS 3 Xrotation Yrotation Zrotation
										JOINT mixamorig:LeftHandMiddle3
										{
											OFFSET 0.108209 0.000000 0.000000
											CHANNELS 3 Xrotation Yrotation Zrotation
											JOINT mixamorig:LeftHandMiddle4
											{
												OFFSET 0.087466 0.000000 0.000000
												CHANNELS 3 Xrotation Yrotation Zrotation
												End Site
												{
													OFFSET 0.087400 -0.000057 -0.003400
												}
											}
										}
									}
								}
								JOINT mixamorig:LeftHandRing1
								{
									OFFSET 0.364574 -0.002440 -0.092011
									CHANNELS 3 Xrotation Yrotation Zrotation
									JOINT mixamorig:LeftHandRing2
									{
										OFFSET 0.114832 0.000000 0.000000
										CHANNELS 3 Xrotation Yrotation Zrotation
										JOINT mixamorig:LeftHandRing3
										{
											OFFSET 0.104409 0.000000 0.000000
											CHANNELS 3 Xrotation Yrotation Zrotation
											JOINT mixamorig:LeftHandRing4
											{
												OFFSET 0.080424 0.000000 0.000000
												CHANNELS 3 Xrotation Yrotation Zrotation
												End Site
												{
													OFFSET 0.080200 -0.000053 -0.006000
												}
											}
										}
									}
								}
								JOINT mixamorig:LeftHandPinky1
								{
									OFFSET 0.312269 -0.016255 -0.171399
									CHANNELS 3 Xrotation Yrotation Zrotation
									JOINT mixamorig:LeftHandPinky2
									{
										OFFSET 0.087028 0.000000 0.000000
										CHANNELS 3 Xrotation Yrotation Zrotation
										JOINT mixamorig:LeftHandPinky3
										{
											OFFSET 0.073733 0.000000 0.000000
											CHANNELS 3 Xrotation Yrotation Zrotation
											JOINT mixamorig:LeftHandPinky4
											{
												OFFSET 0.056250 0.000000 0.000000
												CHANNELS 3 Xrotation Yrotation Zrotation
												End Site
												{
													OFFSET 0.056100 -0.000056 -0.004100
												}
											}
										}
									}
								}
							}
						}
					}
				}
				JOINT mixamorig:RightShoulder
				{
					OFFSET -0.202600 0.346968 -0.022971
					CHANNELS 3 Xrotation Yrotation Zrotation
					JOINT mixamorig:RightArm
					{
						OFFSET -0.427342 -0.109309 -0.000307
						CHANNELS 3 Xrotation Yrotation Zrotation
						JOINT mixamorig:RightForeArm
						{
							OFFSET -0.849600 0.000000 -0.000000
							CHANNELS 3 Xrotation Yrotation Zrotation
							JOINT mixamorig:RightHand
							{
								OFFSET -0.753900 0.000000 -0.000000
								CHANNELS 3 Xrotation Yrotation Zrotation
								JOINT mixamorig:RightHandThumb1
								{
									OFFSET -0.139217 -0.077736 0.046135
									CHANNELS 3 Xrotation Yrotation Zrotation
									JOINT mixamorig:RightHandThumb2
									{
										OFFSET -0.102889 -0.059403 0.059403
										CHANNELS 3 Xrotation Yrotation Zrotation
										JOINT mixamorig:RightHandThumb3
										{
											OFFSET -0.097122 -0.056073 0.056073
											CHANNELS 3 Xrotation Yrotation Zrotation
											JOINT mixamorig:RightHandThumb4
											{
												OFFSET -0.076714 -0.044291 0.044291
												CHANNELS 3 Xrotation Yrotation Zrotation
												End Site
												{
													OFFSET -0.072157 -0.042014 0.053259
												}
											}
										}
									}
								}
								JOINT mixamorig:RightHandIndex1
								{
									OFFSET -0.450325 -0.003448 0.076701
									CHANNELS 3 Xrotation Yrotation Zrotation
									JOINT mixamorig:RightHandIndex2
									{
										OFFSET -0.104343 0.000000 -0.000000
										CHANNELS 3 Xrotation Yrotation Zrotation
										JOINT mixamorig:RightHandIndex3
										{
											OFFSET -0.097003 0.000000 -0.000000
											CHANNELS 3 Xrotation Yrotation Zrotation
											JOINT mixamorig:RightHandIndex4
											{
												OFFSET -0.081630 0.000000 -0.000000
												CHANNELS 3 Xrotation Yrotation Zrotation
												End Site
												{
													OFFSET -0.081600 -0.000082 -0.002198
												}
											}
										}
									}
								}
								JOINT mixamorig:RightHandMiddle1
								{
									OFFSET -0.397234 0.000000 -0.000000
									CHANNELS 3 Xrotation Yrotation Zrotation
									JOINT mixamorig:RightHandMiddle2
									{
										OFFSET -0.115313 0.000000 -0.000000
										CHANNELS 3 Xrotation Yrotation Zrotation
										JOINT mixamorig:RightHandMiddle3
										{
											OFFSET -0.121324 0.000000 -0.000000
											CHANNELS 3 Xrotation Yrotation Zrotation
											JOINT mixamorig:RightHandMiddle4
											{
												OFFSET -0.103502 0.000000 0.000000
												CHANNELS 3 Xrotation Yrotation Zrotation
												End Site
												{
													OFFSET -0.103400 -0.000083 -0.004599
												}
											}
										}
									}
								}
								JOINT mixamorig:RightHandRing1
								{
									OFFSET -0.356229 0.006227 -0.097026
									CHANNELS 3 Xrotation Yrotation Zrotation
									JOINT mixamorig:RightHandRing2
									{
										OFFSET -0.116123 0.000000 0.000000
										CHANNELS 3 Xrotation Yrotation Zrotation
										JOINT mixamorig:RightHandRing3
										{
											OFFSET -0.105608 0.000000 0.000000
											CHANNELS 3 Xrotation Yrotation Zrotation
											JOINT mixamorig:RightHandRing4
											{
												OFFSET -0.089388 0.000000 0.000000
												CHANNELS 3 Xrotation Yrotation Zrotation
												End Site
												{
													OFFSET -0.089200 -0.000198 -0.005797
												}
											}
										}
									}
								}
								JOINT mixamorig:RightHandPinky1
								{
									OFFSET -0.319258 -0.005155 -0.189362
									CHANNELS 3 Xrotation Yrotation Zrotation
									JOINT mixamorig:RightHandPinky2
									{
										OFFSET -0.084919 0.000000 0.000000
										CHANNELS 3 Xrotation Yrotation Zrotation
										JOINT mixamorig:RightHandPinky3
										{
											OFFSET -0.068357 0.000000 0.000000
											CHANNELS 3 Xrotation Yrotation Zrotation
											JOINT mixamorig:RightHandPinky4
											{
												OFFSET -0.053427 0.000000 0.000000
												CHANNELS 3 Xrotation Yrotation Zrotation
												End Site
												{
													OFFSET -0.053400 -0.000117 -0.001696
												}
											}
										}
									}
								}
							}
						}
					}
				}
			}
		}
	}
	JOINT mixamorig:LeftUpLeg
	{
		OFFSET 0.302300 -0.158000 -0.006800
		CHANNELS 3 Xrotation Yrotation Zrotation
		JOINT mixamorig:LeftLeg
		{
			OFFSET -0.021195 -1.512800 -0.072827
			CHANNELS 3 Xrotation Yrotation Zrotation
			JOINT mixamorig:LeftFoot
			{
				OFFSET 0.021196 -1.499076 -0.232845
				CHANNELS 3 Xrotation Yrotation Zrotation
				JOINT mixamorig:LeftToeBase
				{
					OFFSET 0.176214 -0.335644 0.384848
					CHANNELS 3 Xrotation Yrotation Zrotation
					JOINT mixamorig:LeftToe_End
					{
						OFFSET 0.078950 -0.008059 0.195507
						CHANNELS 3 Xrotation Yrotation Zrotation
						End Site
						{
							OFFSET 0.078950 -0.008059 0.195507
						}
					}
				}
			}
		}
	}
	JOINT mixamorig:RightUpLeg
	{
		OFFSET -0.302300 -0.158000 -0.006600
		CHANNELS 3 Xrotation Yrotation Zrotation
		JOINT mixamorig:RightLeg
		{
			OFFSET 0.021196 -1.512831 -0.074247
			CHANNELS 3 Xrotation Yrotation Zrotation
			JOINT mixamorig:RightFoot
			{
				OFFSET -0.021196 -1.499093 -0.231430
				CHANNELS 3 Xrotation Yrotation Zrotation
				JOINT mixamorig:RightToeBase
				{
					OFFSET -0.176206 -0.335620 0.376547
					CHANNELS 3 Xrotation Yrotation Zrotation
					JOINT mixamorig:RightToe_End
					{
						OFFSET -0.078935 -0.008056 0.196268
						CHANNELS 3 Xrotation Yrotation Zrotation
						End Site
						{
							OFFSET -0.078935 -0.008056 0.196268
						}
					}
				}
			}
		}
	}
}
MOTION
Frames: 4
Frame Time: 0.033333
-0.048828 3.132086 0.016132 5.746852 7.506584 -2.473801 17.565399 -0.466585 3.045014 -2.423997 -0.514425 -0.133899 -2.445755 -0.410499 -0.147270 5.519326 -0.755472 1.393412 -1.217317 -2.566061 -2.381572 0.000001 -0.000000 0.000000 0.404998 0.788093 -4.060957 28.839036 -21.812192 -60.873808 -0.000068 -95.018600 -0.000085 13.928885 -20.904170 19.618632 5.205045 1.811261 10.988779 -0.138794 20.769652 -5.056692 21.674654 43.734941 -4.237442 0.000002 0.000000 -0.000004 -1.792954 7.458962 -93.714813 5.443519 6.730009 -77.912159 0.468894 2.501874 -21.226917 0.000001 -0.000001 -0.000001 1.859706 6.581692 -86.402228 6.500125 6.870678 -86.817735 0.273045 1.923466 -16.157702 0.000002 0.000000 0.000002 1.668473 6.718547 -88.166186 6.543946 6.872961 -87.184004 2.130779 4.984119 -46.273323 0.000002 0.000002 -0.000001 6.471785 7.041318 -73.931129 6.867761 2.794972 -89.894196 0.608039 2.833791 -24.215509 -0.000000 0.000001 0.000001 0.784256 0.541119 12.293759 6.389436 13.584379 55.129148 -0.000088 88.047545 -0.000260 -1.901406 8.195936 -0.461161 -3.085798 3.571503 -4.711153 0.402090 -24.013009 0.604105 17.581643 -32.303318 -3.185462 -0.000001 -0.000007 0.000001 -0.794618 -3.011173 54.516442 4.167956 -6.370243 66.361476 3.849435 -6.221981 63.457628 -0.000002 0.000002 0.000000 -0.453351 -2.728772 48.503943 7.138314 -6.945653 91.571554 0.912087 -3.430326 29.503624 -0.000002 -0.000001 0.000001 0.548609 -3.728457 50.386531 4.980144 -6.664981 73.507363 4.282082 -6.320098 67.071180 -0.000001 0.000002 -0.000000 -1.212286 -2.728126 54.687084 5.685856 -6.833191 79.507316 0.295346 -2.008765 16.726573 0.000001 0.000000 0.000000 -32.200076 -3.021696 -4.030135 77.517449 5.427972 7.652608 -2.157096 20.242119 5.359718 -8.114270 0.000014 -0.000001 -0.000000 -0.000003 -0.000004 -20.174702 -9.589010 6.589740 50.130768 -10.544131 -1.253337 -22.092669 -7.779478 2.077668 -14.744720 -0.000010 -0.000006 0.000000 0.000001 -0.000000 
-0.046492 3.205461 0.385585 6.492104 6.664201 -1.455033 15.144485 2.286561 1.399300 -2.217477 0.132985 -0.131829 -2.223718 0.178750 -0.180179 6.176547 -1.280756 0.523664 0.680422 -5.807752 -1.625894 0.000002 0.000000 -0.000000 0.435236 0.269209 -4.707325 35.013769 -15.827092 -60.529621 -0.000136 -94.512688 -0.000203 15.767944 -20.754592 18.767104 5.404260 0.055266 9.757428 2.097609 19.605192 -5.725085 21.813375 43.690015 -4.400596 -0.000001 0.000000 -0.000001 -2.141254 7.545377 -94.095739 5.489392 6.739632 -78.303413 0.400710 2.318808 -19.605349 -0.000001 0.000000 -0.000000 1.128810 6.615436 -87.250926 6.573518 6.874329 -87.430779 0.205535 1.672984 -14.006112 -0.000000 0.000000 -0.000000 1.057375 6.716559 -88.346639 6.601347 6.875552 -87.663600 2.506424 5.316696 -50.455980 0.000001 0.000002 -0.000002 5.948401 6.908168 -73.080121 6.934338 2.794759 -90.448486 0.598263 2.812020 -24.017322 -0.000001 0.000002 0.000002 0.702377 -0.022348 11.979235 8.834511 15.381613 54.737433 -0.000394 88.573333 0.000312 -2.934865 9.941544 -3.792583 -4.504923 4.098459 -5.092615 1.531650 -23.526457 1.151667 17.726335 -32.254721 -3.055528 0.000004 0.000000 -0.000002 -0.904441 -2.969751 54.891625 4.150306 -6.362532 66.202216 3.704180 -6.147712 62.109451 -0.000002 -0.000000 0.000000 -0.704336 -2.620083 49.722018 7.159620 -6.945035 91.747623 0.895454 -3.385919 29.117486 -0.000002 -0.000001 0.000000 0.344456 -3.637597 51.611573 5.014495 -6.675014 73.803261 4.225355 -6.275173 66.485772 0.000001 0.000000 -0.000001 -1.019771 -2.902195 55.031685 5.726986 -6.840617 79.852759 0.290485 -1.992557 16.587423 -0.000001 0.000000 0.000000 -40.376277 -2.767200 -4.282489 72.168482 6.506107 6.227435 -6.279267 16.755934 5.373835 -7.560091 -0.000011 -0.000004 0.000002 0.000002 0.000001 -11.187555 -9.821344 6.097887 42.511043 -9.613079 -2.992820 -14.437691 -3.762052 7.124473 -16.257898 0.029582 -0.926323 -0.000001 -0.000003 -0.000000 
-0.047923 3.309345 0.786222 6.898839 6.031261 -0.429563 12.642696 4.403979 -0.712939 -1.781031 0.694846 -0.049868 -1.781549 0.699199 -0.108630 7.092915 -1.619235 -0.205311 2.700294 -8.474851 -0.321684 0.000000 0.000000 0.000000 0.457990 -0.091275 -5.249632 40.623469 -9.073091 -61.000167 0.000027 -93.650923 -0.000035 15.798380 -21.649755 18.885304 4.996441 -1.087061 9.127123 3.665783 18.811801 -6.277749 21.827623 43.685323 -4.417360 -0.000001 -0.000003 0.000003 -2.436457 7.583600 -94.192537 5.513851 6.744590 -78.511645 0.363143 2.210657 -18.655233 -0.000002 0.000001 0.000001 0.704579 6.653275 -87.818160 6.619110 6.876208 -87.811924 0.158729 1.472850 -12.301569 -0.000001 0.000001 0.000003 0.783868 6.732290 -88.576413 6.636535 6.876863 -87.957667 2.766535 5.520247 -53.210199 0.000001 -0.000003 0.000003 5.301488 6.716534 -72.666335 6.971412 2.794381 -90.757156 0.593623 2.801566 -23.922263 -0.000003 -0.000000 0.000002 0.645864 -0.412308 11.388077 11.289037 15.792243 54.621279 -0.000870 90.365568 0.002479 -3.793708 10.649016 -4.929725 -5.646823 4.310237 -5.536624 2.516501 -23.109892 1.617078 17.824390 -32.221677 -2.967485 -0.000002 0.000000 -0.000006 -1.034461 -2.890606 55.020582 4.131530 -6.354262 66.032636 3.584461 -6.083223 60.985748 0.000000 0.000000 -0.000001 -0.850959 -2.560660 50.389010 7.176769 -6.944472 91.889390 0.878599 -3.348378 28.779395 0.000002 -0.000001 0.000000 0.174702 -3.545614 52.229657 5.041293 -6.682696 74.033739 4.184330 -6.245340 66.069649 0.000001 -0.000001 0.000003 -0.815697 -3.054571 55.111471 5.756119 -6.845747 80.097376 0.285923 -1.977170 16.455592 0.000003 0.000000 -0.000000 -43.180432 -1.992685 -3.776652 59.328778 8.159635 5.321126 -10.586739 10.284382 2.059567 -4.857974 -0.000001 -0.000006 0.000001 -0.000003 -0.000002 -2.237768 -10.119353 5.856909 34.534857 -6.643622 -4.352129 -3.969119 -0.710501 7.613419 -10.640819 0.000004 -0.000003 -0.000003 0.000000 0.000000 
-0.052335 3.402073 1.189017 6.724976 5.626043 0.146352 10.374287 5.743338 -2.849188 -1.045664 1.082355 0.084454 -1.051141 1.072044 0.035550 8.123367 -1.763330 -0.616367 4.719247 -10.116832 1.123567 -0.000000 0.000000 0.000001 0.472402 -0.262752 -5.550593 45.615890 -2.201402 -61.858380 -0.000134 -93.655602 -0.000136 14.372844 -22.363972 19.222138 4.099357 -1.620987 9.080596 4.516599 18.407220 -6.685558 21.721205 43.719870 -4.292209 -0.000001 -0.000001 -0.000000 -2.551747 7.648181 -94.512319 5.523738 6.746594 -78.595752 0.340376 2.142032 -18.055340 -0.000002 0.000002 0.000001 0.663692 6.732255 -88.588257 6.658166 6.877561 -88.138038 0.115908 1.260701 -10.507092 0.000001 -0.000001 -0.000001 0.814599 6.794761 -89.174137 6.666770 6.877868 -88.209974 3.006582 5.691022 -55.667316 0.000003 -0.000004 -0.000004 4.785002 6.557138 -73.030404 7.005744 2.793831 -91.043054 0.591388 2.796538 -23.876656 -0.000000 -0.000001 0.000001 0.616709 -0.678414 10.663868 14.062624 14.977234 54.488445 0.000104 93.542111 -0.000032 -4.345422 10.786433 -4.020184 -6.536924 4.377823 -5.994294 3.476201 -22.709438 2.060879 17.906826 -32.193789 -2.893482 0.000001 0.000000 -0.000003 -1.196982 -2.800007 55.248072 4.110814 -6.345075 65.845250 3.467061 -6.016947 59.871867 0.000001 0.000001 -0.000003 -0.959899 -2.519375 50.876867 7.186755 -6.944162 91.972158 0.861242 -3.314584 28.465764 -0.000001 0.000000 -0.000003 0.024618 -3.456931 52.609778 5.058347 -6.687494 74.180130 4.147601 -6.220143 65.700962 0.000001 0.000000 -0.000002 -0.590847 -3.222562 55.213135 5.778808 -6.849636 80.287535 0.280316 -1.958082 16.292282 0.000001 0.000000 -0.000000 -42.295485 -0.942462 -2.844991 42.677358 8.656298 4.954710 -12.948293 6.082473 -3.374229 -1.525131 0.000016 0.000006 -0.000001 0.000000 0.000001 4.999363 -10.644410 5.740138 28.293666 -3.519241 -5.013829 11.311119 0.197655 5.989399 -3.748522 -0.000009 -0.000001 -0.000001 0.000000 0.000001 
